<svg width="128" height="128" viewBox="0 0 128 128" fill="none" xmlns="http://www.w3.org/2000/svg">
<g clip-path="url(#clip0)">
<path d="M77.1437 50.8282C77.5647 50.8282 77.8637 50.8282 78.1627 50.8282C88.9026 50.8282 99.6425 50.8282 110.382 50.8282C110.645 50.8282 110.913 50.8159 111.176 50.8404C111.688 50.8833 111.945 51.153 111.987 51.6617C111.999 51.8211 111.993 51.9866 111.993 52.1521C111.993 70.337 111.993 88.5157 111.993 106.701C111.993 106.842 111.999 106.989 111.987 107.13C111.951 107.675 111.688 107.945 111.151 107.994C110.968 108.012 110.785 108.006 110.602 108.006C92.5578 108.006 74.5197 108.006 56.4755 108.006C55.2001 108.006 55.0598 107.859 55.0598 106.554C55.0598 98.1567 55.0598 89.7599 55.0598 81.3631C55.0598 81.0996 55.0598 80.836 55.0598 80.5357C54.8706 80.4989 54.718 80.4499 54.5655 80.4376C54.3214 80.4193 54.0773 80.4315 53.8332 80.4315C41.7508 80.4315 29.6685 80.4315 17.5861 80.4315C17.3237 80.4315 17.0552 80.4376 16.7928 80.407C16.3229 80.3518 16.0666 80.0822 16.0117 79.6102C15.9873 79.4264 15.9995 79.2425 15.9995 79.0586C15.9995 59.5069 16.0056 39.9552 15.9873 20.4097C15.9995 19.3555 16.2863 19 17.403 19C36.8508 19.0123 56.2924 19.0123 75.7402 19.0123C76.9484 19.0123 77.1437 19.2145 77.1437 20.4465C77.1437 30.2346 77.1437 40.0165 77.1437 49.8046C77.1437 50.0988 77.1437 50.4053 77.1437 50.8282ZM55.0659 76.8092C54.6814 76.8092 54.4007 76.8092 54.12 76.8092C43.136 76.8092 32.1521 76.8092 21.1681 76.8092C20.9667 76.8092 20.7592 76.8154 20.5579 76.8031C19.9537 76.7725 19.6669 76.4967 19.6181 75.9021C19.6059 75.7183 19.6059 75.5344 19.6059 75.3505C19.6059 61.2537 19.6059 47.1569 19.6059 33.0601C19.6059 32.8578 19.5998 32.6494 19.6242 32.4471C19.6791 31.9813 19.9965 31.6626 20.3992 31.6442C20.7958 31.6259 21.1559 31.9262 21.2291 32.3859C21.2779 32.7046 21.2779 33.0355 21.2779 33.3604C21.2779 39.1033 21.2779 44.8401 21.2779 50.583C21.2779 58.4711 21.2779 66.3531 21.2779 74.2412C21.2779 74.517 21.3023 74.7989 21.3206 75.0563C22.0163 75.185 54.4923 75.1667 55.0537 75.0257C55.0537 74.7928 55.0537 74.5292 55.0537 74.2718C55.0537 66.9169 55.0537 59.5621 55.0537 52.2072C55.0537 52.0233 55.0415 51.8395 55.0598 51.6556C55.1025 51.1469 55.3588 50.8833 55.8714 50.8343C56.091 50.8159 56.3168 50.8221 56.5426 50.8221C61.345 50.8221 66.1414 50.8221 70.9438 50.8221C71.2428 50.8221 71.5357 50.7853 71.8164 50.7669C71.9507 49.9456 71.9141 24.8165 71.7798 24.3507C54.9804 24.3507 38.1688 24.3507 21.3145 24.3507C21.3023 24.6081 21.284 24.8287 21.284 25.0432C21.2779 26.1036 21.2901 27.17 21.2779 28.2304C21.2779 28.5123 21.2596 28.8065 21.1925 29.0823C21.1071 29.4439 20.7714 29.6829 20.4358 29.6829C20.0819 29.6829 19.7402 29.4071 19.6547 29.0271C19.6242 28.9107 19.612 28.782 19.612 28.6655C19.612 26.9923 19.5998 25.3129 19.6181 23.6397C19.6242 22.9165 19.9049 22.659 20.6311 22.6284C20.7348 22.6223 20.8325 22.6284 20.9362 22.6284C38.0407 22.6284 55.1513 22.6284 72.2558 22.6284C73.3298 22.6284 73.5556 22.8613 73.5556 23.9094C73.5556 24.0932 73.5556 24.2771 73.5556 24.461C73.5556 32.962 73.5556 41.4569 73.5556 49.9579C73.5556 50.2153 73.5556 50.4727 73.5556 50.7669C74.239 50.8404 74.8309 50.8895 75.4106 50.7485C75.5449 49.7617 75.4961 21.1942 75.3435 20.6732C75.1116 20.6732 74.8492 20.6732 74.5929 20.6732C55.9019 20.6732 37.2047 20.6732 18.5136 20.6732C17.6654 20.6732 17.6654 20.6732 17.6654 21.5007C17.6654 26.2629 17.6654 31.0191 17.6654 35.7814C17.6654 49.774 17.6654 63.7727 17.6654 77.7654C17.6654 78.0657 17.6898 78.366 17.702 78.6418C17.818 78.6786 17.879 78.7154 17.9339 78.7154C30.0773 78.7215 42.2207 78.7276 54.3641 78.7276C54.5472 78.7276 54.7302 78.7031 54.9072 78.6909C54.9255 78.6909 54.9438 78.6725 54.956 78.6602C54.9743 78.648 54.9865 78.6296 55.0537 78.5499C55.0537 78.2741 55.0537 77.9309 55.0537 77.5876C55.0659 77.367 55.0659 77.1463 55.0659 76.8092ZM60.0636 103.066C75.7096 103.066 91.3618 103.066 107.075 103.066C107.087 102.692 107.112 102.349 107.112 102.012C107.112 86.959 107.112 71.8999 107.112 56.8469C107.112 56.6447 107.118 56.4363 107.106 56.234C107.093 56.0808 107.051 55.9276 107.02 55.7927C106.111 55.6701 77.6746 55.713 77.2047 55.8356C77.1864 55.9643 77.1437 56.0992 77.1437 56.2401C77.1376 59.4089 77.1376 62.5714 77.1437 65.7402C77.1437 65.8689 77.1986 65.9976 77.2535 66.2182C77.4793 66.016 77.6379 65.8689 77.8027 65.7218C81.3664 62.4489 86.9682 62.8289 90.0559 66.5615C92.3748 69.3624 92.6799 73.1563 90.837 76.4109C90.3061 77.3547 89.7447 78.2741 89.1955 79.2057C87.3405 82.3744 85.4793 85.5431 83.6242 88.7119C83.5266 88.8774 83.4595 89.0551 83.3313 89.3186C83.6852 89.3309 83.9232 89.3493 84.1612 89.3493C85.8515 89.3554 87.5357 89.3309 89.226 89.3677C90.4282 89.3922 91.4778 90.1951 91.85 91.329C92.2527 92.5425 92.0025 93.6335 91.0811 94.5283C90.4831 95.1106 89.7447 95.3435 88.9087 95.3435C85.3267 95.3374 81.7508 95.3435 78.1688 95.3374C78.0468 95.3374 77.9247 95.3313 77.8027 95.3251C76.0941 95.2025 74.8675 93.707 75.0506 91.997C75.1116 91.4516 75.3313 90.9796 75.5998 90.5199C78.7302 85.1877 81.8607 79.8615 84.985 74.5292C85.2718 74.0389 85.583 73.5486 85.821 73.0337C86.3031 71.9857 85.9919 70.7599 85.1009 70.0489C84.1795 69.3134 82.9164 69.2889 81.9949 70.0183C81.3481 70.527 81.0247 71.2012 81.0003 72.0347C80.9453 73.8673 79.4869 75.1299 77.8088 75.0012C77.6135 74.9889 77.4183 75.0012 77.1864 75.0012C77.1681 75.3076 77.1437 75.5467 77.1437 75.7857C77.1376 76.8276 77.1437 77.8696 77.1437 78.9115C77.1437 79.077 77.1498 79.2363 77.1376 79.4018C77.1071 80.1128 76.8264 80.3825 76.1185 80.4131C75.9171 80.4193 75.7096 80.4193 75.5083 80.4193C70.6265 80.4193 65.7447 80.4193 60.863 80.4193C60.5823 80.4193 60.3077 80.4499 60.0453 80.4622C59.8927 81.1302 59.911 102.521 60.0636 103.066ZM60.0026 55.7682C59.9842 56.0195 59.9476 56.2585 59.9476 56.4976C59.9415 57.5211 59.9476 58.5385 59.9415 59.5621C59.9415 59.7643 59.9354 59.9727 59.8927 60.1689C59.8134 60.5121 59.5266 60.7389 59.1971 60.745C58.8736 60.7511 58.5746 60.5366 58.477 60.1995C58.4282 60.0279 58.4038 59.8379 58.4038 59.654C58.3977 58.2014 58.3977 56.755 58.4038 55.3024C58.4038 55.1798 58.4099 55.0572 58.4343 54.9346C58.5136 54.4505 58.7638 54.2237 59.252 54.1869C59.435 54.1746 59.6181 54.1808 59.8012 54.1808C63.5601 54.1808 67.3252 54.1808 71.0842 54.1808C71.3405 54.1808 71.5907 54.1501 71.853 54.1317C71.853 53.525 71.853 52.9856 71.853 52.4279C66.7638 52.4279 61.7356 52.4279 56.6585 52.4279C56.6402 52.6424 56.6097 52.8201 56.6097 52.9979C56.6097 60.1627 56.6097 67.3337 56.6097 74.4986C56.6097 74.6947 56.6463 74.8847 56.6646 75.0809C57.2688 75.0809 57.8058 75.0809 58.3977 75.0809C58.3977 74.7805 58.3977 74.5415 58.3977 74.2963C58.3977 70.907 58.3977 67.5176 58.4038 64.1282C58.4038 63.8034 58.416 63.4724 58.4831 63.1537C58.5563 62.7982 58.8492 62.6021 59.191 62.6021C59.5571 62.6021 59.85 62.835 59.9171 63.215C59.9598 63.454 59.9537 63.7053 59.9537 63.9444C59.9537 67.3766 59.9537 70.8089 59.9598 74.235C59.9598 74.517 59.9965 74.7928 60.0148 75.0686C60.149 75.0931 60.2283 75.1238 60.3077 75.1238C64.03 75.1299 67.7463 75.1299 71.4686 75.1299C71.5662 75.1299 71.67 75.0992 71.7676 75.0809C71.7859 75.0747 71.7981 75.0563 71.8164 75.0441C71.8286 75.0318 71.8469 75.0134 71.8592 75.0012C71.9751 74.2412 71.9385 56.2463 71.8103 55.7559C67.8866 55.7682 63.9751 55.7682 60.0026 55.7682ZM110.352 106.394C110.504 105.824 110.498 52.9856 110.352 52.4279C99.3313 52.4279 88.2924 52.4279 77.2169 52.4279C77.1132 53.004 77.1132 53.5617 77.2291 54.1869C77.5464 54.1869 77.8271 54.1869 78.1078 54.1869C87.792 54.1869 97.4701 54.1869 107.154 54.1869C107.356 54.1869 107.563 54.1808 107.765 54.193C108.32 54.2237 108.588 54.4566 108.649 55.0082C108.686 55.333 108.68 55.6579 108.68 55.9888C108.68 71.6179 108.68 87.247 108.68 102.87C108.68 103.011 108.68 103.158 108.68 103.299C108.662 104.457 108.472 104.641 107.313 104.641C91.4717 104.641 75.6242 104.641 59.7829 104.641C59.6181 104.641 59.4595 104.647 59.2947 104.635C58.7516 104.605 58.4831 104.353 58.4343 103.802C58.3977 103.434 58.4038 103.066 58.4038 102.698C58.4038 95.5703 58.4038 88.4422 58.4038 81.308C58.4038 81.0444 58.4038 80.787 58.4038 80.4867C57.7814 80.3886 57.2321 80.3764 56.6891 80.4805C56.5487 81.2651 56.5914 105.922 56.7257 106.394C74.5929 106.394 92.4785 106.394 110.352 106.394ZM83.4961 93.7929C84.5334 93.7929 85.5708 93.7929 86.6082 93.7929C87.3588 93.7929 88.1154 93.799 88.866 93.7929C89.8607 93.7867 90.4526 93.2351 90.4831 92.3525C90.5136 91.5987 89.8485 90.7958 88.8965 90.8816C88.7135 90.8999 88.5304 90.8816 88.3473 90.8816C86.2909 90.8816 84.2405 90.8877 82.1841 90.8754C81.2565 90.8693 80.9331 90.3116 81.3664 89.5086C81.403 89.4351 81.4457 89.3677 81.4884 89.2941C83.252 86.2848 85.0216 83.2815 86.7852 80.2722C87.7676 78.5989 88.7745 76.9441 89.702 75.2463C90.6479 73.5118 90.7821 71.6363 90.1292 69.7915C89.1589 67.0518 87.1757 65.3847 84.2893 65.0721C81.2993 64.7534 78.9987 66.0221 77.4427 68.6086C77.3084 68.8292 77.1803 69.0989 77.1742 69.3441C77.1437 70.527 77.1559 71.7099 77.1498 72.8989C77.1498 73.1931 77.3206 73.3341 77.583 73.4137C78.2787 73.6405 79.0659 73.285 79.3405 72.5802C79.432 72.3412 79.4503 72.0654 79.4747 71.8018C79.6822 69.4605 81.4396 67.9221 83.5388 67.9466C86.6997 67.9895 88.3839 71.195 87.1879 73.7263C87.0292 74.0573 86.8401 74.3699 86.6509 74.6886C83.4289 80.1802 80.2131 85.6657 76.9911 91.1574C76.8691 91.3658 76.7409 91.5803 76.6555 91.807C76.3504 92.6283 76.8141 93.5354 77.6379 93.7377C77.8332 93.7867 78.0407 93.7806 78.2421 93.7806C79.9995 93.7929 81.7508 93.7929 83.4961 93.7929ZM75.4717 78.7031C75.4717 78.4151 75.4717 78.1944 75.4717 77.9738C75.4717 76.7663 75.4656 75.565 75.4778 74.3576C75.4839 73.9225 75.4045 73.5241 75.252 73.1073C75.1055 72.715 75.0262 72.2676 75.0445 71.8508C75.075 71.1828 75.2093 70.5208 75.3008 69.8528C75.3557 69.4299 75.4595 69.007 75.4595 68.5841C75.4717 64.5389 75.4656 60.4998 75.4656 56.4547C75.4656 56.234 75.4472 56.0195 75.435 55.7314C74.7943 55.7253 74.2024 55.6701 73.5556 55.7682C73.5556 56.0992 73.5556 56.3566 73.5556 56.6201C73.5556 62.8289 73.5556 69.0315 73.5556 75.2402C73.5556 75.4241 73.5617 75.6079 73.5556 75.7918C73.5312 76.4844 73.226 76.7786 72.5304 76.797C72.3656 76.8031 72.207 76.797 72.0422 76.797C68.2833 76.797 64.5182 76.797 60.7592 76.797C60.5212 76.797 60.2833 76.797 60.0087 76.797C59.9293 77.4712 59.8927 78.0718 60.0209 78.6909C65.165 78.7031 70.2604 78.7031 75.4717 78.7031ZM75.4289 52.3972C74.7699 52.4033 74.1902 52.3298 73.6105 52.4401C73.6105 53.0408 73.6105 53.574 73.6105 54.1317C74.239 54.1317 74.8187 54.1317 75.4289 54.1317C75.4289 53.5495 75.4289 53.0101 75.4289 52.3972ZM56.6463 76.846C56.6463 77.4896 56.6463 78.0718 56.6463 78.6909C57.2444 78.7522 57.7936 78.7522 58.3794 78.6909C58.3672 78.0351 58.4587 77.4528 58.3122 76.846C57.763 76.846 57.2444 76.846 56.6463 76.846Z" fill="#5E35B1"/>
<path d="M44.5157 45.6737C44.2899 45.8576 44.1679 45.9495 44.058 46.0599C42.7705 47.2673 40.9642 47.3224 39.6888 46.2008C38.4196 45.0853 38.206 43.2466 39.2373 41.8308C40.415 40.2189 41.6354 38.6376 42.8376 37.0379C43.6004 36.0266 44.357 35.0214 45.1198 34.0101C45.6263 33.3298 46.2792 32.8763 47.1091 32.6924C49.0618 32.2572 50.923 33.7098 50.9779 35.7201C50.984 35.9469 50.984 36.1676 50.984 36.3943C50.984 45.3182 50.984 54.2422 50.9779 63.1661C50.9779 63.6319 50.9596 64.1161 50.8376 64.5574C50.4226 66.0161 48.9093 67.0028 47.4692 66.8067C45.7972 66.5799 44.5889 65.3112 44.5828 63.6932C44.5645 59.7522 44.5767 55.8112 44.5767 51.8702C44.5767 50.0131 44.5767 48.156 44.5767 46.2928C44.5645 46.1395 44.5401 45.9802 44.5157 45.6737ZM49.3486 49.7128C49.3486 45.2815 49.3486 40.8502 49.3486 36.4189C49.3486 36.1737 49.3608 35.9285 49.3303 35.6834C49.2266 34.8008 48.5065 34.2063 47.64 34.2798C47.0908 34.3227 46.7125 34.6414 46.3952 35.0643C45.1442 36.7253 43.8872 38.3863 42.6362 40.0473C41.9711 40.9237 41.312 41.8063 40.653 42.6889C40.3479 43.0934 40.1587 43.5408 40.2746 44.0618C40.415 44.6931 40.7933 45.1282 41.4158 45.2999C42.0443 45.4715 42.5935 45.2753 43.0023 44.7789C43.4539 44.2273 43.8689 43.645 44.3021 43.0811C44.4608 42.8728 44.6194 42.6582 44.7964 42.4621C45.0405 42.1924 45.3517 42.125 45.6873 42.2537C45.9985 42.3702 46.1755 42.6153 46.206 42.9524C46.2243 43.1731 46.2182 43.3999 46.2182 43.6266C46.2182 50.0989 46.2182 56.5773 46.2182 63.0496C46.2182 63.3315 46.2121 63.6257 46.267 63.9015C46.4196 64.6861 47.0603 65.1948 47.8292 65.1703C48.5981 65.1519 49.2144 64.6064 49.3303 63.8219C49.367 63.5583 49.3608 63.2948 49.3608 63.0251C49.3486 58.5754 49.3486 54.1441 49.3486 49.7128Z" fill="#5E35B1"/>
</g>
<defs>
<clipPath id="clip0">
<rect x="16" y="19" width="96" height="89" fill="white"/>
</clipPath>
</defs>
</svg>
