<svg width="75" height="23" viewBox="0 0 75 23" fill="none" xmlns="http://www.w3.org/2000/svg">
<path d="M27.5565 19.1255C27.487 19.1255 27.4244 19.1046 27.3687 19.0629C27.327 19.0072 27.3061 18.9446 27.3061 18.8751V4.7663C27.3061 4.69673 27.327 4.64107 27.3687 4.59933C27.4244 4.54367 27.487 4.51584 27.5565 4.51584H32.7743C33.8178 4.51584 34.7292 4.70368 35.5084 5.07936C36.3015 5.44112 36.9137 5.95594 37.345 6.62381C37.7763 7.29168 37.992 8.0639 37.992 8.94048V14.7009C37.992 15.5774 37.7763 16.3497 37.345 17.0175C36.9137 17.6854 36.3015 18.2072 35.5084 18.5829C34.7292 18.9446 33.8178 19.1255 32.7743 19.1255H27.5565ZM30.2489 16.4958C30.2489 16.5653 30.2837 16.6001 30.3532 16.6001H32.8786C33.5187 16.6001 34.0335 16.3845 34.4231 15.9531C34.8266 15.5218 35.0353 14.9444 35.0492 14.2208V9.42052C35.0492 8.69699 34.8475 8.11956 34.444 7.68823C34.0544 7.25689 33.5256 7.04123 32.8578 7.04123H30.3532C30.2837 7.04123 30.2489 7.07601 30.2489 7.14558V16.4958Z" fill="black"/>
<path d="M44.9246 19.2925C43.8393 19.2925 42.8862 19.0838 42.0653 18.6663C41.2443 18.235 40.6113 17.6367 40.166 16.8714C39.7208 16.1062 39.4981 15.2226 39.4981 14.2208V9.39964C39.4981 8.39784 39.7208 7.5143 40.166 6.74903C40.6113 5.98377 41.2443 5.39242 42.0653 4.975C42.8862 4.55759 43.8393 4.34888 44.9246 4.34888C45.996 4.34888 46.9352 4.55063 47.7422 4.95413C48.5631 5.34372 49.1962 5.90724 49.6414 6.64468C50.1006 7.36821 50.3302 8.21 50.3302 9.17006C50.3302 9.29529 50.2467 9.37182 50.0797 9.39964L47.6378 9.54574H47.5961C47.4569 9.54574 47.3874 9.46921 47.3874 9.31616C47.3874 8.57872 47.1578 7.98738 46.6986 7.54213C46.2534 7.09688 45.662 6.87426 44.9246 6.87426C44.1732 6.87426 43.568 7.09688 43.1088 7.54213C42.6636 7.98738 42.4409 8.57872 42.4409 9.31616V14.3461C42.4409 15.0696 42.6636 15.654 43.1088 16.0992C43.568 16.5445 44.1732 16.7671 44.9246 16.7671C45.662 16.7671 46.2534 16.5445 46.6986 16.0992C47.1578 15.654 47.3874 15.0696 47.3874 14.3461C47.3874 14.193 47.4708 14.1165 47.6378 14.1165L50.0797 14.2208C50.1493 14.2208 50.2049 14.2417 50.2467 14.2834C50.3023 14.3252 50.3302 14.3739 50.3302 14.4295C50.3302 15.3896 50.1006 16.2384 49.6414 16.9758C49.1962 17.7132 48.5631 18.2837 47.7422 18.6872C46.9352 19.0907 45.996 19.2925 44.9246 19.2925Z" fill="black"/>
<path d="M61.734 4.51584C61.8036 4.51584 61.8592 4.54367 61.901 4.59933C61.9566 4.64107 61.9845 4.69673 61.9845 4.7663V6.81165C61.9845 6.88122 61.9566 6.94383 61.901 6.99949C61.8592 7.04123 61.8036 7.0621 61.734 7.0621H57.9981C57.9285 7.0621 57.8938 7.09688 57.8938 7.16645V18.8751C57.8938 18.9446 57.8659 19.0072 57.8103 19.0629C57.7685 19.1046 57.7129 19.1255 57.6433 19.1255H55.2014C55.1318 19.1255 55.0692 19.1046 55.0136 19.0629C54.9718 19.0072 54.951 18.9446 54.951 18.8751V7.16645C54.951 7.09688 54.9162 7.0621 54.8466 7.0621H51.2151C51.1455 7.0621 51.0829 7.04123 51.0272 6.99949C50.9855 6.94383 50.9646 6.88122 50.9646 6.81165V4.7663C50.9646 4.69673 50.9855 4.64107 51.0272 4.59933C51.0829 4.54367 51.1455 4.51584 51.2151 4.51584H61.734Z" fill="black"/>
<path d="M63.0272 19.1255C62.9298 19.1255 62.8602 19.0977 62.8185 19.042C62.7767 18.9864 62.7837 18.9168 62.8394 18.8333L66.8883 11.8833C66.9161 11.8415 66.9161 11.7998 66.8883 11.7581L62.8394 4.80804L62.7976 4.68281C62.7976 4.5715 62.8741 4.51584 63.0272 4.51584H65.6778C65.8169 4.51584 65.9213 4.5715 65.9909 4.68281L68.7041 9.46226C68.7458 9.54574 68.7876 9.54574 68.8293 9.46226L71.5425 4.68281C71.6121 4.5715 71.7165 4.51584 71.8556 4.51584H74.4853C74.5827 4.51584 74.6523 4.54367 74.694 4.59933C74.7358 4.65498 74.7288 4.72455 74.6732 4.80804L70.6242 11.7581C70.6103 11.7998 70.6103 11.8415 70.6242 11.8833L74.6732 18.8333L74.7149 18.9585C74.7149 19.0698 74.6384 19.1255 74.4853 19.1255H71.8556C71.7165 19.1255 71.6121 19.0698 71.5425 18.9585L68.8293 14.2C68.7876 14.1165 68.7458 14.1165 68.7041 14.2L65.97 18.9585C65.9004 19.0698 65.7961 19.1255 65.6569 19.1255H63.0272Z" fill="black"/>
<path fill-rule="evenodd" clip-rule="evenodd" d="M6.51818 0.870361L4.38293 2.88789L11.5004 9.61298L11.5805 9.53729L11.6607 9.61304L18.7781 2.88795L16.6429 0.870423L11.5806 5.65367L6.51818 0.870361Z" fill="black"/>
<path fill-rule="evenodd" clip-rule="evenodd" d="M4.3776 20.2149L6.51283 22.2324L11.5753 17.449L16.6373 22.232L18.7726 20.2145L11.6551 13.4894L11.5749 13.5652L11.495 13.4898L4.3776 20.2149Z" fill="black"/>
<path fill-rule="evenodd" clip-rule="evenodd" d="M2.42675 4.75079L0.291504 6.76832L5.35371 11.5515L0.291637 16.3345L2.42687 18.3521L9.5443 11.6269L9.46433 11.5514L9.54422 11.4759L2.42675 4.75079Z" fill="#00BCD4"/>
<path fill-rule="evenodd" clip-rule="evenodd" d="M22.5539 6.76826L20.4187 4.75073L13.3012 11.4758L13.3811 11.5513L13.3011 11.6269L20.4186 18.352L22.5538 16.3345L17.4917 11.5514L22.5539 6.76826Z" fill="#00BCD4"/>
</svg>
