<?xml version="1.0" encoding="utf-8"?>
<!-- Svg Vector Icons : http://www.onlinewebfonts.com/icon -->
<!DOCTYPE svg PUBLIC "-//W3C//DTD SVG 1.1//EN" "http://www.w3.org/Graphics/SVG/1.1/DTD/svg11.dtd">
<svg version="1.1" xmlns="http://www.w3.org/2000/svg" xmlns:xlink="http://www.w3.org/1999/xlink" x="0px" y="0px" viewBox="0 0 1000 1000" enable-background="new 0 0 1000 1000" xml:space="preserve">
<metadata> Svg Vector Icons : http://www.onlinewebfonts.com/icon </metadata>
<g><path d="M500,10C229.4,10,10,229.4,10,500s219.4,490,490,490s490-219.4,490-490S770.6,10,500,10z M764.4,764.4c-20.8,20.8-54.7,20.8-75.5,0L500,575.5L311.1,764.4c-20.8,20.8-54.7,20.8-75.5,0c-20.8-20.8-20.8-54.8,0-75.6L424.5,500L235.6,311.1c-20.8-20.7-20.8-54.7,0-75.5c20.8-20.8,54.7-20.8,75.5,0L500,424.5l188.9-188.9c20.8-20.8,54.7-20.8,75.5,0c20.7,20.8,20.7,54.8-0.1,75.5L575.5,500l188.9,188.9C785.2,709.6,785.2,743.6,764.4,764.4z"/></g>
</svg>