<svg width="128" height="128" viewBox="0 0 128 128" fill="none" xmlns="http://www.w3.org/2000/svg">
<path d="M115.469 27.7812H12.5312C11.0145 27.7812 9.55996 28.3838 8.48748 29.4562C7.41501 30.5287 6.8125 31.9833 6.8125 33.5V94.5C6.8125 96.0167 7.41501 97.4713 8.48748 98.5438C9.55996 99.6162 11.0145 100.219 12.5312 100.219H115.469C116.985 100.219 118.44 99.6162 119.513 98.5438C120.585 97.4713 121.188 96.0167 121.188 94.5V33.5C121.187 31.9833 120.585 30.5287 119.513 29.4562C118.44 28.3838 116.985 27.7812 115.469 27.7812V27.7812ZM117.375 94.5C117.375 95.0056 117.174 95.4904 116.817 95.8479C116.459 96.2054 115.974 96.4062 115.469 96.4062H12.5312C12.0257 96.4062 11.5408 96.2054 11.1833 95.8479C10.8258 95.4904 10.625 95.0056 10.625 94.5V33.5C10.625 32.9944 10.8258 32.5096 11.1833 32.1521C11.5408 31.7946 12.0257 31.5938 12.5312 31.5938H115.469C115.974 31.5938 116.459 31.7946 116.817 32.1521C117.174 32.5096 117.375 32.9944 117.375 33.5V94.5Z" fill="#5E35B1"/>
<path d="M14.4375 92.5938H113.562V35.4062H14.4375V92.5938ZM18.25 39.2188H109.75V88.7812H18.25V39.2188Z" fill="#5E35B1"/>
<path d="M25.875 43.0312H33.5V46.8438H25.875V43.0312Z" fill="#5E35B1"/>
<path d="M25.875 81.1562H33.5V84.9688H25.875V81.1562Z" fill="#5E35B1"/>
<path d="M94.5 43.0312H102.125V46.8438H94.5V43.0312Z" fill="#5E35B1"/>
<path d="M94.5 81.1562H102.125V84.9688H94.5V81.1562Z" fill="#5E35B1"/>
<path d="M35.4062 50.6562H23.9688C23.4632 50.6562 22.9783 50.8571 22.6208 51.2146C22.2633 51.5721 22.0625 52.0569 22.0625 52.5625V75.4375C22.0625 75.9431 22.2633 76.4279 22.6208 76.7854C22.9783 77.1429 23.4632 77.3438 23.9688 77.3438H35.4062C35.9118 77.3438 36.3967 77.1429 36.7542 76.7854C37.1117 76.4279 37.3125 75.9431 37.3125 75.4375V52.5625C37.3125 52.0569 37.1117 51.5721 36.7542 51.2146C36.3967 50.8571 35.9118 50.6562 35.4062 50.6562ZM33.5 73.5312H25.875V54.4688H33.5V73.5312Z" fill="#5E35B1"/>
<path d="M104.031 50.6562H92.5938C92.0882 50.6562 91.6033 50.8571 91.2458 51.2146C90.8883 51.5721 90.6875 52.0569 90.6875 52.5625V75.4375C90.6875 75.9431 90.8883 76.4279 91.2458 76.7854C91.6033 77.1429 92.0882 77.3438 92.5938 77.3438H104.031C104.537 77.3438 105.022 77.1429 105.379 76.7854C105.737 76.4279 105.938 75.9431 105.938 75.4375V52.5625C105.938 52.0569 105.737 51.5721 105.379 51.2146C105.022 50.8571 104.537 50.6562 104.031 50.6562ZM102.125 73.5312H94.5V54.4688H102.125V73.5312Z" fill="#5E35B1"/>
<path d="M50.6564 52.5625C50.6564 52.0569 50.4556 51.5721 50.0981 51.2146C49.7406 50.8571 49.2558 50.6562 48.7502 50.6562H44.9377C44.4322 50.6564 43.9474 50.8573 43.59 51.2148L39.7775 55.0273L42.4729 57.7227L45.7269 54.4688H46.8439V73.5312H43.0314V77.3438H54.4689V73.5312H50.6564V52.5625Z" fill="#5E35B1"/>
<path d="M69.7188 50.6562H60.1875C59.6819 50.6562 59.1971 50.8571 58.8396 51.2146C58.4821 51.5721 58.2812 52.0569 58.2812 52.5625V77.3438H62.0938V65.9062H69.7188C70.2243 65.9062 70.7092 65.7054 71.0667 65.3479C71.4242 64.9904 71.625 64.5056 71.625 64V52.5625C71.625 52.0569 71.4242 51.5721 71.0667 51.2146C70.7092 50.8571 70.2243 50.6562 69.7188 50.6562ZM67.8125 62.0938H62.0938V54.4688H67.8125V62.0938Z" fill="#5E35B1"/>
<path d="M75.4375 52.5625V77.3438H79.25V62.0938H86.875V58.2812H79.25V54.4688H88.7812V50.6562H77.3438C76.8382 50.6562 76.3533 50.8571 75.9958 51.2146C75.6383 51.5721 75.4375 52.0569 75.4375 52.5625Z" fill="#5E35B1"/>
<path d="M41.125 43.0312H44.9375V46.8438H41.125V43.0312Z" fill="#5E35B1"/>
<path d="M67.8125 81.1562H71.625V84.9688H67.8125V81.1562Z" fill="#5E35B1"/>
</svg>
