<svg width="128" height="128" viewBox="0 0 128 128" fill="none" xmlns="http://www.w3.org/2000/svg">
<path d="M27 27V53.9091H33.7273V60.6364H40.4545V53.9091H53.9091V27H27ZM53.9091 53.9091V60.6364H60.6364V67.3636H47.1818V74.0909H27V101H53.9091V74.0909H74.0909V67.3636H67.3636V60.6364H80.8182V53.9091H87.5455V60.6364H94.2727V53.9091H101V27H74.0909V53.9091H53.9091ZM94.2727 60.6364V67.3636H101V60.6364H94.2727ZM94.2727 67.3636H87.5455V74.0909H94.2727V67.3636ZM94.2727 74.0909V80.8182H101V74.0909H94.2727ZM94.2727 80.8182H87.5455V74.0909H80.8182V80.8182H64V101H70.7273V87.5455H84.1818V94.2727H90.9091V87.5455H94.2727V80.8182ZM84.1818 94.2727H77.4545V101H84.1818V94.2727ZM87.5455 67.3636V60.6364H80.8182V67.3636H87.5455ZM47.1818 67.3636V60.6364H40.4545V67.3636H47.1818ZM33.7273 60.6364H27V67.3636H33.7273V60.6364ZM60.6364 27V40.4545H57.2727V47.1818H60.6364V50.5455H67.3636V40.4545H70.7273V33.7273H67.3636V27H60.6364ZM33.7273 33.7273H47.1818V47.1818H33.7273V33.7273ZM80.8182 33.7273H94.2727V47.1818H80.8182V33.7273ZM37.0909 37.0909V43.8182H43.8182V37.0909H37.0909ZM84.1818 37.0909V43.8182H90.9091V37.0909H84.1818ZM33.7273 80.8182H47.1818V94.2727H33.7273V80.8182ZM37.0909 84.1818V90.9091H43.8182V84.1818H37.0909ZM94.2727 94.2727V101H101V94.2727H94.2727Z" fill="white"/>
</svg>
