<svg width="70" height="70" viewBox="0 0 70 70" fill="none" xmlns="http://www.w3.org/2000/svg">
<path d="M44.3111 15.5993H54.2451V25.5618H57.3822V15.5993C57.3822 13.8689 55.9705 12.4532 54.2451 12.4532H44.3111V15.5993Z" fill="#FF7043"/>
<path d="M15.5546 25.5618V15.5993H25.4887V12.4532H15.5546C13.8292 12.4532 12.4176 13.8689 12.4176 15.5993V25.5618H15.5546Z" fill="#FF7043"/>
<path d="M54.2451 44.4382V54.4008H44.3111V57.5468H54.2451C55.9705 57.5468 57.3822 56.1311 57.3822 54.4008V44.4382H54.2451Z" fill="#FF7043"/>
<path d="M25.4887 54.4008H15.5546V44.4382H12.4176V54.4008C12.4176 56.1311 13.8292 57.5468 15.5546 57.5468H25.4887V54.4008Z" fill="#FF7043"/>
<path d="M8.88836 33.427H1.56853C0.70584 33.427 0 34.1348 0 35C0 35.8652 0.70584 36.573 1.56853 36.573H8.88836V33.427Z" fill="#FF7043"/>
<path d="M36.4684 8.91386V1.57303C36.4684 0.707865 35.7626 0 34.8999 0C34.0372 0 33.3313 0.707865 33.3313 1.57303V8.91386H36.4684Z" fill="#FF7043"/>
<path d="M33.3313 61.0861V68.427C33.3313 69.2921 34.0372 70 34.8999 70C35.7626 70 36.4684 69.2921 36.4684 68.427V61.0861H33.3313Z" fill="#FF7043"/>
<path d="M68.2312 33.427H60.9114V36.573H68.2312C69.0939 36.573 69.7997 35.8652 69.7997 35C69.7997 34.1348 69.0939 33.427 68.2312 33.427Z" fill="#FF7043"/>
<path d="M34.5817 20.1064C34.8697 20.1064 35.1708 20.1064 35.4589 20.1064C35.9171 20.2507 36.336 20.4474 36.6503 20.8145C37.3703 21.6538 37.3965 22.9913 36.4277 23.8829C35.6029 24.6435 35.9171 25.981 37.0038 26.2564C38.025 26.5186 38.9676 26.912 39.8841 27.4234C40.8398 27.961 41.9134 27.3054 41.9396 26.1908C41.9396 26.0597 41.9396 25.9154 41.9396 25.7843C41.9658 24.6697 42.7644 23.7125 43.8642 23.4896C44.977 23.2535 46.1161 23.8436 46.5743 24.8795C47.0195 25.9023 46.7052 27.1349 45.8281 27.7906C45.2913 28.1971 44.6759 28.2889 44.0213 28.2889C42.9215 28.2758 42.2407 29.4035 42.7906 30.3607C43.3012 31.2524 43.7071 32.1834 43.9427 33.18C44.0606 33.7045 44.401 34.0848 44.9378 34.2028C45.5007 34.3208 46.0113 34.229 46.4303 33.7569C47.2682 32.8128 48.6036 32.7997 49.507 33.6914C49.8212 34.0061 49.9783 34.4126 50.1224 34.8191C50.1224 35.0682 50.1224 35.3305 50.1224 35.5796C50.07 35.6976 50.0307 35.8156 49.9783 35.9337C49.4023 37.4285 47.4777 37.7695 46.4172 36.5762C45.684 35.7501 44.3355 35.9992 43.9951 37.0614C43.6809 38.0973 43.3143 39.107 42.7644 40.0511C42.4502 40.5887 42.5942 41.1919 43.0132 41.6509C43.406 42.0705 43.8904 42.0574 44.401 42.0705C45.4484 42.0836 46.3648 42.7655 46.6791 43.762C46.9933 44.7717 46.666 45.8208 45.8281 46.4371C44.9378 47.0927 43.8511 47.1058 42.9739 46.4764C42.2145 45.9388 41.9265 45.1782 41.9396 44.2603C41.9527 42.9884 40.8398 42.3459 39.7532 42.9884C38.9414 43.4736 38.0773 43.8145 37.174 44.0505C36.611 44.1948 36.1789 44.4964 36.048 45.0864C35.904 45.6765 36.048 46.1879 36.5324 46.6206C37.2787 47.2763 37.3965 48.4433 36.8728 49.2826C36.5455 49.8071 36.0349 50.0693 35.485 50.266C35.2363 50.266 34.9744 50.266 34.7257 50.266C34.6471 50.2398 34.5555 50.2005 34.4769 50.1742C33.6783 49.912 33.1677 49.3612 32.9975 48.5351C32.8273 47.7352 33.1022 47.0534 33.7045 46.5289C34.1627 46.1224 34.2151 45.611 34.1103 45.0733C34.0056 44.5488 33.639 44.1948 33.1284 44.0899C32.0941 43.8669 31.1384 43.4473 30.2219 42.9097C29.672 42.595 29.0567 42.713 28.6115 43.1589C28.2187 43.5522 28.2057 44.0374 28.2057 44.5488C28.2057 45.5716 27.5379 46.4633 26.5691 46.7911C25.6003 47.1189 24.5136 46.8042 23.8721 45.9912C23.2567 45.2176 23.1782 44.0636 23.7019 43.2244C24.2386 42.359 25.0242 42.018 26.0323 42.0311C27.2368 42.0574 27.8914 40.9297 27.3023 39.8938C26.8179 39.0414 26.4382 38.1629 26.2156 37.2056C26.0323 36.4582 25.5348 36.1041 24.7623 36.091C24.3172 36.091 24.0161 36.3139 23.728 36.6155C22.8901 37.4679 21.6594 37.5334 20.7561 36.7598C20.3764 36.4451 20.1931 36.0123 20.0491 35.5665C20.0491 35.278 20.0491 34.9764 20.0491 34.6879C20.2324 34.2421 20.4157 33.7963 20.8215 33.4947C21.738 32.7735 22.9818 32.8521 23.8197 33.8094C24.3827 34.4388 25.8359 34.3863 26.1501 33.3111C26.4644 32.2358 26.8702 31.2261 27.407 30.2427C27.8391 29.4559 27.3416 28.5249 26.4644 28.3282C26.2418 28.2758 26.0192 28.2889 25.7966 28.2889C24.3041 28.2758 23.1782 26.9514 23.4007 25.4696C23.5709 24.355 24.5267 23.5027 25.7181 23.3978C26.6869 23.3191 27.7605 24.0534 28.114 25.0238C28.258 25.4172 28.2449 25.8105 28.258 26.217C28.2842 27.2661 29.3185 27.9348 30.235 27.4496C31.2038 26.9251 32.2119 26.5055 33.2724 26.2039C33.8223 26.0466 34.1365 25.5614 34.1889 24.9844C34.2282 24.473 34.0187 24.1059 33.6652 23.7649C32.7487 22.8733 32.7749 21.444 33.6783 20.6178C33.8878 20.3818 34.2413 20.2507 34.5817 20.1064Z" fill="#5E35B1"/>
</svg>
