<svg width="172" height="172" viewBox="0 0 172 172" fill="none" xmlns="http://www.w3.org/2000/svg">
<path d="M109.191 38.3296H133.67V62.809H141.401V38.3296C141.401 34.0779 137.922 30.5993 133.67 30.5993H109.191V38.3296Z" fill="#FF7043"/>
<path d="M38.3296 62.809V38.3296H62.809V30.5993H38.3296C34.0779 30.5993 30.5993 34.0779 30.5993 38.3296V62.809H38.3296Z" fill="#FF7043"/>
<path d="M133.67 109.191V133.67H109.191V141.401H133.67C137.922 141.401 141.401 137.922 141.401 133.67V109.191H133.67Z" fill="#FF7043"/>
<path d="M62.809 133.67H38.3296V109.191H30.5993V133.67C30.5993 137.922 34.0779 141.401 38.3296 141.401H62.809V133.67Z" fill="#FF7043"/>
<path d="M21.9026 82.1348H3.86517C1.73933 82.1348 0 83.8742 0 86C0 88.1258 1.73933 89.8652 3.86517 89.8652H21.9026V82.1348Z" fill="#FF7043"/>
<path d="M89.8652 21.9026V3.86517C89.8652 1.73933 88.1258 0 86 0C83.8742 0 82.1348 1.73933 82.1348 3.86517V21.9026H89.8652Z" fill="#FF7043"/>
<path d="M82.1348 150.097V168.135C82.1348 170.261 83.8742 172 86 172C88.1258 172 89.8652 170.261 89.8652 168.135V150.097H82.1348Z" fill="#FF7043"/>
<path d="M168.135 82.1348H150.097V89.8652H168.135C170.261 89.8652 172 88.1258 172 86C172 83.8742 170.261 82.1348 168.135 82.1348Z" fill="#FF7043"/>
<path d="M85.2154 49.4042C85.9252 49.4042 86.6672 49.4042 87.377 49.4042C88.5061 49.7587 89.5385 50.242 90.3128 51.1441C92.0873 53.2062 92.1518 56.4927 89.7644 58.6836C87.7318 60.5524 88.5061 63.8389 91.1839 64.5155C93.7004 65.1599 96.0232 66.1265 98.2816 67.3831C100.637 68.7041 103.282 67.0931 103.347 64.3544C103.347 64.0322 103.347 63.6778 103.347 63.3556C103.411 60.6169 105.379 58.2648 108.089 57.717C110.832 57.1371 113.638 58.587 114.768 61.1324C115.865 63.6455 115.09 66.6742 112.929 68.2853C111.606 69.2841 110.09 69.5096 108.476 69.5096C105.766 69.4774 104.089 72.2483 105.444 74.6004C106.702 76.7914 107.702 79.079 108.283 81.5277C108.573 82.8166 109.412 83.7509 110.735 84.0409C112.122 84.3309 113.38 84.1054 114.413 82.9454C116.478 80.6256 119.768 80.5934 121.994 82.7843C122.769 83.5576 123.156 84.5564 123.511 85.5553C123.511 86.1674 123.511 86.8118 123.511 87.424C123.382 87.714 123.285 88.004 123.156 88.294C121.736 91.9671 116.994 92.8048 114.38 89.8728C112.574 87.8429 109.251 88.4551 108.412 91.0649C107.638 93.6103 106.734 96.0913 105.379 98.4111C104.605 99.7321 104.96 101.214 105.992 102.342C106.96 103.373 108.154 103.341 109.412 103.373C111.993 103.405 114.251 105.081 115.026 107.529C115.8 110.01 114.993 112.588 112.929 114.102C110.735 115.713 108.057 115.746 105.895 114.199C104.024 112.878 103.315 111.009 103.347 108.754C103.379 105.628 100.637 104.05 97.959 105.628C95.9587 106.821 93.8294 107.658 91.6033 108.238C90.216 108.593 89.1514 109.334 88.8288 110.784C88.4739 112.234 88.8288 113.49 90.0225 114.553C91.8614 116.164 92.1518 119.032 90.8613 121.094C90.0547 122.383 88.7965 123.027 87.4415 123.511C86.8285 123.511 86.1833 123.511 85.5703 123.511C85.3767 123.446 85.1509 123.35 84.9573 123.285C82.9893 122.641 81.7311 121.287 81.3117 119.258C80.8922 117.292 81.5698 115.617 83.0538 114.328C84.183 113.329 84.3121 112.072 84.054 110.751C83.7959 109.463 82.8925 108.593 81.6343 108.335C79.0856 107.787 76.7304 106.756 74.4721 105.435C73.117 104.662 71.6007 104.952 70.5038 106.047C69.5359 107.014 69.5037 108.206 69.5037 109.463C69.5037 111.976 67.8583 114.167 65.4709 114.972C63.0835 115.778 60.4057 115.005 58.8249 113.007C57.3085 111.106 57.115 108.27 58.4055 106.208C59.7282 104.082 61.6639 103.244 64.1481 103.276C67.1163 103.341 68.7294 100.57 67.2776 98.0245C66.0839 95.9302 65.1483 93.7714 64.5998 91.4193C64.1481 89.5828 62.9222 88.7128 61.0187 88.6806C59.9218 88.6806 59.1798 89.2284 58.47 89.9694C56.4052 92.0637 53.3726 92.2248 51.1465 90.3238C50.2109 89.5506 49.7592 88.4873 49.4043 87.3918C49.4043 86.683 49.4043 85.9419 49.4043 85.2331C49.856 84.1376 50.3076 83.0421 51.3078 82.301C53.5661 80.5289 56.631 80.7222 58.6958 83.0743C60.0831 84.6209 63.6642 84.492 64.4385 81.8499C65.2128 79.2079 66.2129 76.7269 67.5357 74.3104C68.6003 72.3772 67.3744 70.0896 65.2128 69.6063C64.6643 69.4774 64.1159 69.5096 63.5674 69.5096C59.8895 69.4774 57.115 66.2232 57.6634 62.5823C58.0828 59.8436 60.438 57.7493 63.3739 57.4915C65.7613 57.2982 68.4068 59.1025 69.2778 61.4868C69.6327 62.4534 69.6005 63.42 69.6327 64.4188C69.6973 66.9964 72.246 68.6397 74.5043 67.4475C76.8917 66.1587 79.3759 65.1277 81.9892 64.3866C83.3442 64 84.1185 62.8078 84.2475 61.3901C84.3443 60.1336 83.8281 59.2314 82.957 58.3937C80.6987 56.2027 80.7632 52.6907 82.9893 50.6608C83.5055 50.0809 84.3766 49.7587 85.2154 49.4042Z" fill="white"/>
</svg>
